<svg width="1200" height="48" viewBox="0 0 1200 48" fill="none" xmlns="http://www.w3.org/2000/svg">
<g clip-path="url(#clip0_100_4)">
<path d="M-64 74L36 -26" stroke="black"/>
<path d="M-54 74L46 -26" stroke="black"/>
<path d="M-44 74L56 -26" stroke="black"/>
<path d="M-34 74L66 -26" stroke="black"/>
<path d="M-24 74L76 -26" stroke="black"/>
<path d="M-14 74L86 -26" stroke="black"/>
<path d="M-4 74L96 -26" stroke="black"/>
<path d="M6 74L106 -26" stroke="black"/>
<path d="M16 74L116 -26" stroke="black"/>
<path d="M26 74L126 -26" stroke="black"/>
<path d="M36 74L136 -26" stroke="black"/>
<path d="M46 74L146 -26" stroke="black"/>
<path d="M56 74L156 -26" stroke="black"/>
<path d="M66 74L166 -26" stroke="black"/>
<path d="M76 74L176 -26" stroke="black"/>
<path d="M86 74L186 -26" stroke="black"/>
<path d="M96 74L196 -26" stroke="black"/>
<path d="M106 74L206 -26" stroke="black"/>
<path d="M116 74L216 -26" stroke="black"/>
<path d="M126 74L226 -26" stroke="black"/>
<path d="M136 74L236 -26" stroke="black"/>
<path d="M146 74L246 -26" stroke="black"/>
<path d="M156 74L256 -26" stroke="black"/>
<path d="M166 74L266 -26" stroke="black"/>
<path d="M176 74L276 -26" stroke="black"/>
<path d="M186 74L286 -26" stroke="black"/>
<path d="M196 74L296 -26" stroke="black"/>
<path d="M206 74L306 -26" stroke="black"/>
<path d="M216 74L316 -26" stroke="black"/>
<path d="M226 74L326 -26" stroke="black"/>
<path d="M236 74L336 -26" stroke="black"/>
<path d="M246 74L346 -26" stroke="black"/>
<path d="M256 74L356 -26" stroke="black"/>
<path d="M266 74L366 -26" stroke="black"/>
<path d="M276 74L376 -26" stroke="black"/>
<path d="M286 74L386 -26" stroke="black"/>
<path d="M296 74L396 -26" stroke="black"/>
<path d="M306 74L406 -26" stroke="black"/>
<path d="M316 74L416 -26" stroke="black"/>
<path d="M326 74L426 -26" stroke="black"/>
<path d="M336 74L436 -26" stroke="black"/>
<path d="M346 74L446 -26" stroke="black"/>
<path d="M356 74L456 -26" stroke="black"/>
<path d="M366 74L466 -26" stroke="black"/>
<path d="M376 74L476 -26" stroke="black"/>
<path d="M386 74L486 -26" stroke="black"/>
<path d="M396 74L496 -26" stroke="black"/>
<path d="M406 74L506 -26" stroke="black"/>
<path d="M416 74L516 -26" stroke="black"/>
<path d="M426 74L526 -26" stroke="black"/>
<path d="M436 74L536 -26" stroke="black"/>
<path d="M446 74L546 -26" stroke="black"/>
<path d="M456 74L556 -26" stroke="black"/>
<path d="M466 74L566 -26" stroke="black"/>
<path d="M476 74L576 -26" stroke="black"/>
<path d="M486 74L586 -26" stroke="black"/>
<path d="M496 74L596 -26" stroke="black"/>
<path d="M506 74L606 -26" stroke="black"/>
<path d="M516 74L616 -26" stroke="black"/>
<path d="M526 74L626 -26" stroke="black"/>
<path d="M536 74L636 -26" stroke="black"/>
<path d="M546 74L646 -26" stroke="black"/>
<path d="M556 74L656 -26" stroke="black"/>
<path d="M566 74L666 -26" stroke="black"/>
<path d="M576 74L676 -26" stroke="black"/>
<path d="M586 74L686 -26" stroke="black"/>
<path d="M596 74L696 -26" stroke="black"/>
<path d="M606 74L706 -26" stroke="black"/>
<path d="M616 74L716 -26" stroke="black"/>
<path d="M626 74L726 -26" stroke="black"/>
<path d="M636 74L736 -26" stroke="black"/>
<path d="M646 74L746 -26" stroke="black"/>
<path d="M656 74L756 -26" stroke="black"/>
<path d="M666 74L766 -26" stroke="black"/>
<path d="M676 74L776 -26" stroke="black"/>
<path d="M686 74L786 -26" stroke="black"/>
<path d="M696 74L796 -26" stroke="black"/>
<path d="M706 74L806 -26" stroke="black"/>
<path d="M716 74L816 -26" stroke="black"/>
<path d="M726 74L826 -26" stroke="black"/>
<path d="M736 74L836 -26" stroke="black"/>
<path d="M746 74L846 -26" stroke="black"/>
<path d="M756 74L856 -26" stroke="black"/>
<path d="M766 74L866 -26" stroke="black"/>
<path d="M776 74L876 -26" stroke="black"/>
<path d="M786 74L886 -26" stroke="black"/>
<path d="M796 74L896 -26" stroke="black"/>
<path d="M806 74L906 -26" stroke="black"/>
<path d="M816 74L916 -26" stroke="black"/>
<path d="M826 74L926 -26" stroke="black"/>
<path d="M836 74L936 -26" stroke="black"/>
<path d="M846 74L946 -26" stroke="black"/>
<path d="M856 74L956 -26" stroke="black"/>
<path d="M866 74L966 -26" stroke="black"/>
<path d="M876 74L976 -26" stroke="black"/>
<path d="M886 74L986 -26" stroke="black"/>
<path d="M896 74L996 -26" stroke="black"/>
<path d="M906 74L1006 -26" stroke="black"/>
<path d="M916 74L1016 -26" stroke="black"/>
<path d="M926 74L1026 -26" stroke="black"/>
<path d="M936 74L1036 -26" stroke="black"/>
<path d="M946 74L1046 -26" stroke="black"/>
<path d="M956 74L1056 -26" stroke="black"/>
<path d="M966 74L1066 -26" stroke="black"/>
<path d="M976 74L1076 -26" stroke="black"/>
<path d="M986 74L1086 -26" stroke="black"/>
<path d="M996 74L1096 -26" stroke="black"/>
<path d="M1006 74L1106 -26" stroke="black"/>
<path d="M1016 74L1116 -26" stroke="black"/>
<path d="M1026 74L1126 -26" stroke="black"/>
<path d="M1036 74L1136 -26" stroke="black"/>
<path d="M1046 74L1146 -26" stroke="black"/>
<path d="M1056 74L1156 -26" stroke="black"/>
<path d="M1066 74L1166 -26" stroke="black"/>
<path d="M1076 74L1176 -26" stroke="black"/>
<path d="M1086 74L1186 -26" stroke="black"/>
<path d="M1096 74L1196 -26" stroke="black"/>
<path d="M1106 74L1206 -26" stroke="black"/>
<path d="M1116 74L1216 -26" stroke="black"/>
<path d="M1126 74L1226 -26" stroke="black"/>
<path d="M1136 74L1236 -26" stroke="black"/>
<path d="M1146 74L1246 -26" stroke="black"/>
<path d="M1156 74L1256 -26" stroke="black"/>
<path d="M1166 74L1266 -26" stroke="black"/>
</g>
<defs>
<clipPath id="clip0_100_4">
<rect width="1200" height="48" fill="white"/>
</clipPath>
</defs>
</svg>
