<svg width="178" height="24" viewBox="0 0 178 24" fill="none" xmlns="http://www.w3.org/2000/svg">
<g clip-path="url(#clip0_112_1000)">
<path d="M5.49999 20.1L3.89999 19.4L11.6 3.5L13.2 4.2L5.49999 20.1Z" fill="black" stroke="white" stroke-width="5" stroke-miterlimit="10"/>
<path d="M16.3 20.1L14.7 19.4L22.3 3.59998L24 4.29998L16.3 20.1Z" fill="black" stroke="white" stroke-width="5" stroke-miterlimit="10"/>
<path d="M28.4 9.79998C28.7 9.39998 29.1 8.99998 29.6 8.79998C30 8.49998 30.4 8.39998 31 8.39998C31.8 8.39998 32.5 8.59998 33 8.99998C33.5 9.39998 33.9 9.99998 34.1 10.7C34.3 11.4 34.5 12.3 34.5 13.3C34.5 14.3 34.4 15.1 34.1 15.9C33.8 16.7 33.4 17.3 32.8 17.7C32.2 18.1 31.5 18.3 30.7 18.3C29.6 18.3 28.8 17.9 28.2 17.1L28.1 18H26.3V4.79998L28.3 4.59998V9.79998H28.4ZM30.2 16.9C30.9 16.9 31.4 16.6 31.8 16.1C32.2 15.5 32.4 14.7 32.4 13.5C32.4 12.7 32.3 12 32.2 11.5C32 11 31.8 10.6 31.5 10.4C31.2 10.1 30.8 9.99998 30.4 9.99998C29.9 9.99998 29.6 10.1 29.2 10.4C28.9 10.7 28.6 11 28.3 11.4V15.8C28.5 16.1 28.8 16.4 29.1 16.6C29.5 16.8 29.8 16.9 30.2 16.9Z" fill="black" stroke="white" stroke-width="5" stroke-miterlimit="10"/>
<path d="M39.2 8.69995V15.3C39.2 15.9 39.3 16.3 39.5 16.5C39.7 16.7 40.1 16.9 40.5 16.9C40.9 16.9 41.3 16.8 41.8 16.5C42.2 16.2 42.5 15.9 42.8 15.6V8.69995H44.8V18.2H43L42.9 17C42.5 17.5 42.1 17.8 41.6 18.1C41.1 18.4 40.5 18.5 39.9 18.5C39 18.5 38.3 18.2 37.8 17.7C37.3 17.2 37.1 16.5 37.1 15.6V8.69995H39.2Z" fill="black" stroke="white" stroke-width="5" stroke-miterlimit="10"/>
<path d="M50 4.59998V9.79998C50.4 9.29998 50.8 8.99998 51.3 8.69998C51.8 8.49998 52.3 8.29998 52.9 8.29998C53.8 8.29998 54.5 8.49998 54.9 8.99998C55.3 9.49998 55.6 10.2 55.6 11.1V18H53.6V11.5C53.6 10.9 53.5 10.5 53.3 10.3C53.1 10.1 52.7 9.89998 52.3 9.89998C52 9.89998 51.7 9.99998 51.4 10.1C51.1 10.2 50.9 10.4 50.6 10.6C50.3 10.8 50.1 11.1 50 11.4V18.2H48V4.89998L50 4.59998Z" fill="black" stroke="white" stroke-width="5" stroke-miterlimit="10"/>
<path d="M62.9 4.80005V15.5C62.9 15.9 63 16.2 63.3 16.4C63.6 16.6 63.9 16.7 64.3 16.7C64.6 16.7 64.8 16.7 65.1 16.6C65.3 16.5 65.6 16.5 65.8 16.4L66.3 17.8C66 17.9 65.7 18.1 65.3 18.2C64.9 18.3 64.4 18.4 63.9 18.4C62.9 18.4 62.2 18.1 61.7 17.6C61.2 17.1 60.9 16.3 60.9 15.4V6.30005H58V4.80005H62.9Z" fill="black" stroke="white" stroke-width="5" stroke-miterlimit="10"/>
<path d="M73.4 8.40002C74.3 8.40002 75.1 8.60002 75.7 9.00002C76.3 9.40002 76.8 10 77.1 10.7C77.4 11.4 77.6 12.3 77.6 13.3C77.6 14.3 77.4 15.2 77.1 15.9C76.8 16.6 76.3 17.2 75.6 17.7C74.9 18.2 74.2 18.3 73.3 18.3C72.4 18.3 71.6 18.1 71 17.7C70.4 17.3 69.9 16.7 69.5 16C69.2 15.2 69 14.4 69 13.3C69 12.3 69.2 11.4 69.5 10.7C69.8 10 70.4 9.50002 71 9.00002C71.7 8.60002 72.4 8.40002 73.4 8.40002ZM73.4 10C72.7 10 72.1 10.3 71.8 10.8C71.4 11.4 71.3 12.2 71.3 13.4C71.3 14.6 71.5 15.4 71.8 16C72.2 16.6 72.7 16.8 73.4 16.8C74.1 16.8 74.7 16.5 75 16C75.4 15.4 75.5 14.6 75.5 13.4C75.5 12.2 75.3 11.4 75 10.8C74.6 10.2 74.1 10 73.4 10Z" fill="black" stroke="white" stroke-width="5" stroke-miterlimit="10"/>
<path d="M86.9 8.40002C87.3 8.40002 87.6 8.50002 87.9 8.60002C88.2 8.80002 88.4 9.00002 88.6 9.40002C88.8 9.80002 88.8 10.3 88.8 11V18.1H87V11.4C87 10.9 87 10.5 86.9 10.3C86.8 10.1 86.7 10 86.4 10C86.2 10 85.9 10.1 85.7 10.2C85.5 10.3 85.2 10.6 85 10.9V18.1H83.4V11.4C83.4 10.9 83.4 10.5 83.3 10.3C83.2 10.1 83 10 82.7 10C82.5 10 82.2 10.1 82 10.2C81.8 10.3 81.5 10.6 81.3 10.9V18.1H79.5V8.70002H81L81.1 9.70002C81.4 9.30002 81.7 9.00002 82 8.80002C82.3 8.60002 82.7 8.40002 83.2 8.40002C83.6 8.40002 83.9 8.50002 84.2 8.70002C84.5 8.90002 84.7 9.20002 84.8 9.60002C85.1 9.20002 85.4 8.90002 85.7 8.70002C86 8.50002 86.4 8.40002 86.9 8.40002Z" fill="black" stroke="white" stroke-width="5" stroke-miterlimit="10"/>
<path d="M92.8 14.1C92.8 14.7 93 15.3 93.2 15.7C93.4 16.1 93.7 16.4 94.1 16.6C94.5 16.8 94.9 16.9 95.4 16.9C95.9 16.9 96.3 16.8 96.7 16.7C97.1 16.6 97.5 16.4 97.9 16.1L98.8 17.3C98.4 17.7 97.8 17.9 97.2 18.2C96.6 18.4 96 18.5 95.3 18.5C94.3 18.5 93.5 18.3 92.8 17.9C92.1 17.5 91.6 16.9 91.2 16.1C90.8 15.3 90.7 14.5 90.7 13.5C90.7 12.5 90.9 11.7 91.2 10.9C91.5 10.1 92 9.60002 92.7 9.10002C93.3 8.70002 94.1 8.40002 95 8.40002C95.8 8.40002 96.6 8.60002 97.2 9.00002C97.8 9.40002 98.3 9.90002 98.6 10.6C98.9 11.3 99.1 12.2 99.1 13.1C99.1 13.3 99.1 13.4 99.1 13.6C99.1 13.8 99.1 13.9 99.1 14H92.8V14.1ZM95.1 9.90002C94.5 9.90002 93.9 10.1 93.5 10.6C93.1 11 92.9 11.8 92.8 12.7H97.2C97.2 11.8 97 11.1 96.6 10.6C96.3 10.1 95.8 9.90002 95.1 9.90002Z" fill="black" stroke="white" stroke-width="5" stroke-miterlimit="10"/>
<path d="M109.9 17.7C109.6 17.9 109.1 18.1 108.6 18.2C108.1 18.3 107.6 18.4 107.1 18.4C106 18.4 105.2 18.1 104.6 17.5C104 16.9 103.7 16.2 103.7 15.2V10.1H101.6V8.70005H103.7V6.50005L105.7 6.30005V8.70005H108.9L108.7 10.2H105.7V15.3C105.7 15.8 105.8 16.2 106.1 16.4C106.4 16.6 106.8 16.8 107.4 16.8C107.7 16.8 108.1 16.8 108.4 16.7C108.7 16.6 109 16.5 109.2 16.4L109.9 17.7Z" fill="black" stroke="white" stroke-width="5" stroke-miterlimit="10"/>
<path d="M120.9 8.7L120.6 12.2H119.2V10.2C118.5 10.2 118 10.5 117.5 11C117 11.5 116.6 12.3 116.3 13.2V16.7H118.2V18.1H112.9V16.7H114.3V10.1H112.9V8.7H115.8L116.2 10.9C116.5 10.1 117 9.5 117.5 9.1C118 8.7 118.7 8.5 119.5 8.5C119.8 8.5 120 8.5 120.3 8.6C120.5 8.5 120.7 8.6 120.9 8.7Z" fill="black" stroke="white" stroke-width="5" stroke-miterlimit="10"/>
<path d="M122.8 21.5V19.8H131.8V21.5H122.8Z" fill="black" stroke="white" stroke-width="5" stroke-miterlimit="10"/>
<path d="M142.7 8.69995L139.4 18.2H138.2H137L133.7 8.69995H135.9L138.1 15.9C138.2 16.1 138.4 16.1 138.5 15.9L140.7 8.69995H142.7Z" fill="black" stroke="white" stroke-width="5" stroke-miterlimit="10"/>
<path d="M148.4 5.5C149.2 5.5 149.9 5.6 150.5 5.9C151.1 6.2 151.5 6.6 151.9 7C152.2 7.5 152.4 8 152.4 8.6C152.4 9.1 152.3 9.6 152.1 10C151.9 10.4 151.2 11 151.2 11C151.2 11 150.9 11.8 151.4 12C151.8 12.2 152.2 12.6 152.4 13C152.7 13.4 152.8 14 152.8 14.6C152.8 15.3 152.6 15.9 152.2 16.5C151.8 17.1 151.3 17.5 150.6 17.9C149.9 18.2 149.1 18.4 148.2 18.4C147.4 18.4 146.7 18.3 146 18C145.3 17.7 144.7 17.3 144.2 16.7L145.4 15.6C145.8 16 146.2 16.3 146.6 16.5C147.1 16.7 147.6 16.8 148.1 16.8C148.9 16.8 149.5 16.6 149.9 16.2C150.4 15.8 150.6 15.2 150.6 14.5C150.6 14 150.5 13.5 150.3 13.2C150.1 12.9 149.8 12.7 149.5 12.5C149.1 12.4 148.7 12.3 148.2 12.3H147.1L147.3 10.8H148.1C148.5 10.8 148.9 10.7 149.2 10.6C149.5 10.5 149.8 10.2 150 9.9C150.2 9.6 150.3 9.2 150.3 8.8C150.3 8.2 150.1 7.7 149.7 7.4C149.3 7.1 148.8 6.9 148.2 6.9C147.7 6.9 147.2 7 146.8 7.2C146.4 7.4 146 7.7 145.6 8L144.6 7C145.1 6.5 145.7 6.1 146.4 5.8C147.1 5.5 147.7 5.5 148.4 5.5Z" fill="black" stroke="white" stroke-width="5" stroke-miterlimit="10"/>
<path d="M158 16.7C158 16.4 158.1 16.1 158.2 15.8C158.4 15.5 158.6 15.3 158.8 15.2C159.1 15 159.4 15 159.7 15C160 15 160.3 15.1 160.6 15.2C160.9 15.4 161.1 15.6 161.2 15.8C161.4 16.1 161.4 16.4 161.4 16.7C161.4 17 161.3 17.3 161.2 17.6C161 17.9 160.8 18.1 160.6 18.2C160.3 18.4 160 18.4 159.7 18.4C159.4 18.4 159.1 18.3 158.8 18.2C158.5 18 158.3 17.8 158.2 17.6C158.1 17.3 158 17 158 16.7Z" fill="black" stroke="white" stroke-width="5" stroke-miterlimit="10"/>
<path d="M170.5 5.5C171.9 5.5 172.9 6.1 173.7 7.2C174.4 8.3 174.8 9.9 174.8 12C174.8 14.1 174.4 15.7 173.7 16.8C173 17.9 171.9 18.5 170.5 18.5C169.1 18.5 168 17.9 167.3 16.8C166.6 15.7 166.2 14.1 166.2 12C166.2 9.9 166.6 8.4 167.3 7.2C168 6 169.1 5.5 170.5 5.5ZM170.5 7C169.8 7 169.2 7.4 168.9 8.1C168.5 8.9 168.3 10.1 168.3 11.9C168.3 12.8 168.3 13.6 168.4 14.3C168.5 14.9 168.6 15.4 168.8 15.8C169 16.2 169.2 16.4 169.5 16.6C169.8 16.8 170.1 16.8 170.5 16.8C171 16.8 171.4 16.6 171.7 16.3C172 16 172.3 15.4 172.5 14.7C172.7 14 172.8 13 172.8 11.8C172.8 10.6 172.7 9.6 172.6 8.9C172.5 8.2 172.2 7.7 171.9 7.4C171.5 7.2 171.1 7 170.5 7Z" fill="black" stroke="white" stroke-width="5" stroke-miterlimit="10"/>
<path d="M5.49999 20.1L3.89999 19.4L11.6 3.5L13.2 4.2L5.49999 20.1Z" fill="black"/>
<path d="M16.3 20.1L14.7 19.4L22.3 3.59998L24 4.29998L16.3 20.1Z" fill="black"/>
<path d="M28.4 9.79998C28.7 9.39998 29.1 8.99998 29.6 8.79998C30 8.49998 30.4 8.39998 31 8.39998C31.8 8.39998 32.5 8.59998 33 8.99998C33.5 9.39998 33.9 9.99998 34.1 10.7C34.3 11.4 34.5 12.3 34.5 13.3C34.5 14.3 34.4 15.1 34.1 15.9C33.8 16.7 33.4 17.3 32.8 17.7C32.2 18.1 31.5 18.3 30.7 18.3C29.6 18.3 28.8 17.9 28.2 17.1L28.1 18H26.3V4.79998L28.3 4.59998V9.79998H28.4ZM30.2 16.9C30.9 16.9 31.4 16.6 31.8 16.1C32.2 15.5 32.4 14.7 32.4 13.5C32.4 12.7 32.3 12 32.2 11.5C32 11 31.8 10.6 31.5 10.4C31.2 10.1 30.8 9.99998 30.4 9.99998C29.9 9.99998 29.6 10.1 29.2 10.4C28.9 10.7 28.6 11 28.3 11.4V15.8C28.5 16.1 28.8 16.4 29.1 16.6C29.5 16.8 29.8 16.9 30.2 16.9Z" fill="black"/>
<path d="M39.2 8.69995V15.3C39.2 15.9 39.3 16.3 39.5 16.5C39.7 16.7 40.1 16.9 40.5 16.9C40.9 16.9 41.3 16.8 41.8 16.5C42.2 16.2 42.5 15.9 42.8 15.6V8.69995H44.8V18.2H43L42.9 17C42.5 17.5 42.1 17.8 41.6 18.1C41.1 18.4 40.5 18.5 39.9 18.5C39 18.5 38.3 18.2 37.8 17.7C37.3 17.2 37.1 16.5 37.1 15.6V8.69995H39.2Z" fill="black"/>
<path d="M50 4.59998V9.79998C50.4 9.29998 50.8 8.99998 51.3 8.69998C51.8 8.49998 52.3 8.29998 52.9 8.29998C53.8 8.29998 54.5 8.49998 54.9 8.99998C55.3 9.49998 55.6 10.2 55.6 11.1V18H53.6V11.5C53.6 10.9 53.5 10.5 53.3 10.3C53.1 10.1 52.7 9.89998 52.3 9.89998C52 9.89998 51.7 9.99998 51.4 10.1C51.1 10.2 50.9 10.4 50.6 10.6C50.3 10.8 50.1 11.1 50 11.4V18.2H48V4.89998L50 4.59998Z" fill="black"/>
<path d="M62.9 4.80005V15.5C62.9 15.9 63 16.2 63.3 16.4C63.6 16.6 63.9 16.7 64.3 16.7C64.6 16.7 64.8 16.7 65.1 16.6C65.3 16.5 65.6 16.5 65.8 16.4L66.3 17.8C66 17.9 65.7 18.1 65.3 18.2C64.9 18.3 64.4 18.4 63.9 18.4C62.9 18.4 62.2 18.1 61.7 17.6C61.2 17.1 60.9 16.3 60.9 15.4V6.30005H58V4.80005H62.9Z" fill="black"/>
<path d="M73.4 8.40002C74.3 8.40002 75.1 8.60002 75.7 9.00002C76.3 9.40002 76.8 10 77.1 10.7C77.4 11.4 77.6 12.3 77.6 13.3C77.6 14.3 77.4 15.2 77.1 15.9C76.8 16.6 76.3 17.2 75.6 17.7C74.9 18.2 74.2 18.3 73.3 18.3C72.4 18.3 71.6 18.1 71 17.7C70.4 17.3 69.9 16.7 69.5 16C69.2 15.2 69 14.4 69 13.3C69 12.3 69.2 11.4 69.5 10.7C69.8 10 70.4 9.50002 71 9.00002C71.7 8.60002 72.4 8.40002 73.4 8.40002ZM73.4 10C72.7 10 72.1 10.3 71.8 10.8C71.4 11.4 71.3 12.2 71.3 13.4C71.3 14.6 71.5 15.4 71.8 16C72.2 16.6 72.7 16.8 73.4 16.8C74.1 16.8 74.7 16.5 75 16C75.4 15.4 75.5 14.6 75.5 13.4C75.5 12.2 75.3 11.4 75 10.8C74.6 10.2 74.1 10 73.4 10Z" fill="black"/>
<path d="M86.9 8.40002C87.3 8.40002 87.6 8.50002 87.9 8.60002C88.2 8.80002 88.4 9.00002 88.6 9.40002C88.8 9.80002 88.8 10.3 88.8 11V18.1H87V11.4C87 10.9 87 10.5 86.9 10.3C86.8 10.1 86.7 10 86.4 10C86.2 10 85.9 10.1 85.7 10.2C85.5 10.3 85.2 10.6 85 10.9V18.1H83.4V11.4C83.4 10.9 83.4 10.5 83.3 10.3C83.2 10.1 83 10 82.7 10C82.5 10 82.2 10.1 82 10.2C81.8 10.3 81.5 10.6 81.3 10.9V18.1H79.5V8.70002H81L81.1 9.70002C81.4 9.30002 81.7 9.00002 82 8.80002C82.3 8.60002 82.7 8.40002 83.2 8.40002C83.6 8.40002 83.9 8.50002 84.2 8.70002C84.5 8.90002 84.7 9.20002 84.8 9.60002C85.1 9.20002 85.4 8.90002 85.7 8.70002C86 8.50002 86.4 8.40002 86.9 8.40002Z" fill="black"/>
<path d="M92.8 14.1C92.8 14.7 93 15.3 93.2 15.7C93.4 16.1 93.7 16.4 94.1 16.6C94.5 16.8 94.9 16.9 95.4 16.9C95.9 16.9 96.3 16.8 96.7 16.7C97.1 16.6 97.5 16.4 97.9 16.1L98.8 17.3C98.4 17.7 97.8 17.9 97.2 18.2C96.6 18.4 96 18.5 95.3 18.5C94.3 18.5 93.5 18.3 92.8 17.9C92.1 17.5 91.6 16.9 91.2 16.1C90.8 15.3 90.7 14.5 90.7 13.5C90.7 12.5 90.9 11.7 91.2 10.9C91.5 10.1 92 9.60002 92.7 9.10002C93.3 8.70002 94.1 8.40002 95 8.40002C95.8 8.40002 96.6 8.60002 97.2 9.00002C97.8 9.40002 98.3 9.90002 98.6 10.6C98.9 11.3 99.1 12.2 99.1 13.1C99.1 13.3 99.1 13.4 99.1 13.6C99.1 13.8 99.1 13.9 99.1 14H92.8V14.1ZM95.1 9.90002C94.5 9.90002 93.9 10.1 93.5 10.6C93.1 11 92.9 11.8 92.8 12.7H97.2C97.2 11.8 97 11.1 96.6 10.6C96.3 10.1 95.8 9.90002 95.1 9.90002Z" fill="black"/>
<path d="M109.9 17.7C109.6 17.9 109.1 18.1 108.6 18.2C108.1 18.3 107.6 18.4 107.1 18.4C106 18.4 105.2 18.1 104.6 17.5C104 16.9 103.7 16.2 103.7 15.2V10.1H101.6V8.70005H103.7V6.50005L105.7 6.30005V8.70005H108.9L108.7 10.2H105.7V15.3C105.7 15.8 105.8 16.2 106.1 16.4C106.4 16.6 106.8 16.8 107.4 16.8C107.7 16.8 108.1 16.8 108.4 16.7C108.7 16.6 109 16.5 109.2 16.4L109.9 17.7Z" fill="black"/>
<path d="M112.8 18.2V16.8H114.2V10.1H112.8V8.7H115.7L116.1 10.9C116.5 10.1 116.9 9.5 117.4 9.1C117.9 8.7 118.6 8.5 119.4 8.5C119.7 8.5 119.9 8.5 120.2 8.6C120.5 8.7 120.6 8.7 120.9 8.8L120.3 10.5C120.1 10.4 119.9 10.4 119.8 10.4C119.6 10.4 119.4 10.4 119.2 10.4C118.5 10.4 117.9 10.7 117.4 11.2C116.9 11.7 116.5 12.4 116.2 13.4V16.9H118.1V18.3H112.8V18.2ZM119.1 12.2V9.8L119.4 8.6H120.9L120.6 12.1H119.1V12.2Z" fill="black"/>
<path d="M122.8 21.5V19.8H131.8V21.5H122.8Z" fill="black"/>
<path d="M142.7 8.69995L139.4 18.2H137L133.7 8.69995H135.9L138.3 16.5L140.7 8.69995H142.7Z" fill="black"/>
<path d="M148.4 5.5C149.2 5.5 149.9 5.6 150.5 5.9C151.1 6.2 151.5 6.6 151.9 7C152.2 7.5 152.4 8 152.4 8.6C152.4 9.1 152.3 9.6 152.1 10C151.9 10.4 151.6 10.7 151.2 11C150.8 11.3 150.4 11.5 149.9 11.6C150.4 11.7 150.9 11.8 151.3 12C151.7 12.2 152.1 12.6 152.3 13C152.6 13.4 152.7 14 152.7 14.6C152.7 15.3 152.5 15.9 152.1 16.5C151.7 17.1 151.2 17.5 150.5 17.9C149.8 18.2 149 18.4 148.1 18.4C147.3 18.4 146.6 18.3 145.9 18C145.2 17.7 144.6 17.3 144.1 16.7L145.3 15.6C145.7 16 146.1 16.3 146.5 16.5C147 16.7 147.5 16.8 148 16.8C148.8 16.8 149.4 16.6 149.8 16.2C150.3 15.8 150.5 15.2 150.5 14.5C150.5 14 150.4 13.5 150.2 13.2C150 12.9 149.7 12.7 149.4 12.5C149 12.4 148.6 12.3 148.1 12.3H147L147.2 10.8H148C148.4 10.8 148.8 10.7 149.1 10.6C149.4 10.5 149.7 10.2 149.9 9.9C150.1 9.6 150.2 9.2 150.2 8.8C150.2 8.2 150 7.7 149.6 7.4C149.2 7.1 148.7 6.9 148.1 6.9C147.6 6.9 147.1 7 146.7 7.2C146.3 7.4 145.9 7.7 145.5 8L144.6 7C145.1 6.5 145.7 6.1 146.4 5.8C147.1 5.5 147.7 5.5 148.4 5.5Z" fill="black"/>
<path d="M158 16.7C158 16.4 158.1 16.1 158.2 15.8C158.4 15.5 158.6 15.3 158.8 15.2C159.1 15 159.4 15 159.7 15C160 15 160.3 15.1 160.6 15.2C160.9 15.4 161.1 15.6 161.2 15.8C161.4 16.1 161.4 16.4 161.4 16.7C161.4 17 161.3 17.3 161.2 17.6C161 17.9 160.8 18.1 160.6 18.2C160.3 18.4 160 18.4 159.7 18.4C159.4 18.4 159.1 18.3 158.8 18.2C158.5 18 158.3 17.8 158.2 17.6C158.1 17.3 158 17 158 16.7Z" fill="black"/>
<path d="M170.5 5.5C171.9 5.5 172.9 6.1 173.7 7.2C174.4 8.3 174.8 9.9 174.8 12C174.8 14.1 174.4 15.7 173.7 16.8C173 17.9 171.9 18.5 170.5 18.5C169.1 18.5 168 17.9 167.3 16.8C166.6 15.7 166.2 14.1 166.2 12C166.2 9.9 166.6 8.4 167.3 7.2C168 6 169.1 5.5 170.5 5.5ZM170.5 7C169.8 7 169.2 7.4 168.9 8.1C168.5 8.9 168.3 10.1 168.3 11.9C168.3 12.8 168.3 13.6 168.4 14.3C168.5 14.9 168.6 15.4 168.8 15.8C169 16.2 169.2 16.4 169.5 16.6C169.8 16.8 170.1 16.8 170.5 16.8C171 16.8 171.4 16.6 171.7 16.3C172 16 172.3 15.4 172.5 14.7C172.7 14 172.8 13 172.8 11.8C172.8 10.6 172.7 9.6 172.6 8.9C172.5 8.2 172.2 7.7 171.9 7.4C171.5 7.2 171.1 7 170.5 7ZM172.2 7.5L172.7 8.9L169 16.5L168.3 15.4L172.2 7.5Z" fill="black"/>
</g>
<defs>
<clipPath id="clip0_112_1000">
<rect width="178" height="24" fill="white"/>
</clipPath>
</defs>
</svg>
